<svg width="444" height="43" viewBox="0 0 444 43" fill="none" xmlns="http://www.w3.org/2000/svg">
<g filter="url(#filter0_d)">
<path d="M27.7812 0.976562C30.9375 0.976562 33.8672 1.25 36.5703 1.79688C39.2891 2.32813 41.7812 3.01562 44.0469 3.85938V11.7344C43.1562 11.2344 42.1484 10.75 41.0234 10.2812C39.9141 9.8125 38.7031 9.39844 37.3906 9.03906C36.0781 8.67969 34.6719 8.39062 33.1719 8.17188C31.6719 7.95313 30.0938 7.84375 28.4375 7.84375C26.375 7.84375 24.5781 7.99219 23.0469 8.28906C21.5156 8.58594 20.2031 8.98438 19.1094 9.48438C18.0156 9.98437 17.1172 10.5703 16.4141 11.2422C15.7109 11.8984 15.1562 12.6016 14.75 13.3516C14.3438 14.1016 14.0625 14.8672 13.9062 15.6484C13.75 16.4297 13.6719 17.1875 13.6719 17.9219C13.6719 18.5625 13.7344 19.2578 13.8594 20.0078C14 20.7578 14.25 21.5078 14.6094 22.2578C14.9844 23.0078 15.5 23.7266 16.1562 24.4141C16.8125 25.1016 17.6641 25.7109 18.7109 26.2422C19.7734 26.7734 21.0469 27.2031 22.5312 27.5312C24.0156 27.8438 25.7812 28 27.8281 28C28.8594 28 29.7578 27.9688 30.5234 27.9062C31.2891 27.8438 31.9844 27.7578 32.6094 27.6484C33.25 27.5391 33.8438 27.4062 34.3906 27.25C34.9531 27.0938 35.5312 26.9297 36.125 26.7578V22.8672H26.375V15.8125H44.8203V32.2656C43.6641 32.6562 42.3672 33.0156 40.9297 33.3438C39.5078 33.6562 38.0312 33.9219 36.5 34.1406C34.9844 34.375 33.4609 34.5547 31.9297 34.6797C30.3984 34.8047 28.9531 34.8672 27.5938 34.8672C25.4844 34.8672 23.4609 34.7266 21.5234 34.4453C19.5859 34.1641 17.7734 33.7344 16.0859 33.1562C14.4141 32.5625 12.8828 31.8125 11.4922 30.9062C10.1172 30 8.9375 28.9219 7.95312 27.6719C6.98438 26.4219 6.22656 24.9922 5.67969 23.3828C5.14844 21.7578 4.88281 19.9375 4.88281 17.9219C4.88281 15.9219 5.16406 14.1094 5.72656 12.4844C6.28906 10.8594 7.07031 9.42187 8.07031 8.17188C9.08594 6.92188 10.2969 5.84375 11.7031 4.9375C13.125 4.03125 14.6797 3.28906 16.3672 2.71094C18.0703 2.11719 19.8828 1.67969 21.8047 1.39844C23.7422 1.11719 25.7344 0.976562 27.7812 0.976562ZM54.1953 34V1.79688H62.8906V34H54.1953ZM91.0391 8.80469V34H82.3438V8.80469H68.6797V1.79688H104.727V8.80469H91.0391ZM141.312 34V20.5703H119.188V34H110.492V1.79688H119.188V13.5156H141.312V1.79688H150.008V34H141.312ZM168.641 1.79688V19.9375C168.641 21.1406 168.742 22.2344 168.945 23.2188C169.148 24.1875 169.523 25.0234 170.07 25.7266C170.617 26.4141 171.383 26.9531 172.367 27.3438C173.352 27.7188 174.633 27.9062 176.211 27.9062C177.398 27.9062 178.641 27.7422 179.938 27.4141C181.25 27.0859 182.547 26.6484 183.828 26.1016C185.109 25.5547 186.328 24.9297 187.484 24.2266C188.656 23.5078 189.703 22.7656 190.625 22V1.79688H199.297V34H190.625V29.5938C189.531 30.2188 188.367 30.8516 187.133 31.4922C185.898 32.1172 184.586 32.6875 183.195 33.2031C181.805 33.7031 180.328 34.1094 178.766 34.4219C177.203 34.75 175.555 34.9141 173.82 34.9141C171.648 34.9141 169.703 34.6484 167.984 34.1172C166.266 33.6016 164.812 32.8672 163.625 31.9141C162.438 30.9453 161.523 29.7812 160.883 28.4219C160.258 27.0469 159.945 25.5156 159.945 23.8281V1.79688H168.641ZM246.125 25.1172C246.125 26.3672 245.961 27.4531 245.633 28.375C245.305 29.2969 244.844 30.0938 244.25 30.7656C243.672 31.4219 242.969 31.9609 242.141 32.3828C241.328 32.7891 240.422 33.1172 239.422 33.3672C238.438 33.6016 237.383 33.7656 236.258 33.8594C235.133 33.9531 233.969 34 232.766 34H209.398V1.79688H232.344C233.266 1.79688 234.188 1.83594 235.109 1.91406C236.047 1.99219 236.938 2.14063 237.781 2.35938C238.625 2.5625 239.406 2.85156 240.125 3.22656C240.859 3.60156 241.492 4.09375 242.023 4.70312C242.57 5.3125 242.992 6.04687 243.289 6.90625C243.602 7.76563 243.758 8.78125 243.758 9.95312C243.758 12.0469 243.242 13.7109 242.211 14.9453C241.18 16.1641 239.555 16.9766 237.336 17.3828C238.898 17.4922 240.234 17.7344 241.344 18.1094C242.469 18.4688 243.383 18.9688 244.086 19.6094C244.789 20.2344 245.305 21.0078 245.633 21.9297C245.961 22.8359 246.125 23.8984 246.125 25.1172ZM235.273 11.3359C235.273 10.9297 235.211 10.5469 235.086 10.1875C234.961 9.8125 234.734 9.48438 234.406 9.20312C234.078 8.92188 233.633 8.69531 233.07 8.52344C232.508 8.35156 231.789 8.26562 230.914 8.26562H218.094V14.3125H230.914C231.789 14.3125 232.508 14.2344 233.07 14.0781C233.633 13.9219 234.078 13.7109 234.406 13.4453C234.734 13.1797 234.961 12.8672 235.086 12.5078C235.211 12.1328 235.273 11.7422 235.273 11.3359ZM237.289 24.1094C237.289 23.375 237.164 22.7891 236.914 22.3516C236.664 21.8984 236.273 21.5547 235.742 21.3203C235.211 21.0703 234.523 20.9062 233.68 20.8281C232.836 20.75 231.828 20.7109 230.656 20.7109H218.094V27.5312H230.656C231.828 27.5312 232.836 27.4922 233.68 27.4141C234.523 27.3359 235.211 27.1719 235.742 26.9219C236.273 26.6719 236.664 26.3281 236.914 25.8906C237.164 25.4375 237.289 24.8438 237.289 24.1094ZM252.383 21.7656V14.0781H271.602V21.7656H252.383ZM303.312 22.0938C303.312 24.2344 302.961 26.0781 302.258 27.625C301.57 29.1719 300.555 30.4453 299.211 31.4453C297.883 32.4453 296.25 33.1875 294.312 33.6719C292.375 34.1406 290.164 34.375 287.68 34.375C286.508 34.375 285.305 34.3125 284.07 34.1875C282.836 34.0781 281.648 33.9375 280.508 33.7656C279.367 33.5938 278.312 33.4141 277.344 33.2266C276.391 33.0234 275.594 32.8359 274.953 32.6641V25.1172C275.609 25.3828 276.328 25.6562 277.109 25.9375C277.891 26.2031 278.758 26.4453 279.711 26.6641C280.68 26.8828 281.742 27.0625 282.898 27.2031C284.07 27.3438 285.359 27.4141 286.766 27.4141C288.281 27.4141 289.539 27.25 290.539 26.9219C291.555 26.5781 292.367 26.1094 292.977 25.5156C293.586 24.9062 294.016 24.1953 294.266 23.3828C294.516 22.5703 294.641 21.6797 294.641 20.7109V1.79688H303.312V22.0938ZM354.852 17.9219C354.852 20.6875 354.344 23.1328 353.328 25.2578C352.312 27.3672 350.859 29.1328 348.969 30.5547C347.078 31.9766 344.781 33.0547 342.078 33.7891C339.391 34.5078 336.367 34.8672 333.008 34.8672C329.648 34.8672 326.609 34.5078 323.891 33.7891C321.188 33.0547 318.883 31.9766 316.977 30.5547C315.07 29.1328 313.602 27.3672 312.57 25.2578C311.539 23.1328 311.023 20.6875 311.023 17.9219C311.023 15.1562 311.539 12.7188 312.57 10.6094C313.602 8.48437 315.07 6.71094 316.977 5.28906C318.883 3.86719 321.188 2.79688 323.891 2.07812C326.609 1.34375 329.648 0.976562 333.008 0.976562C336.367 0.976562 339.391 1.34375 342.078 2.07812C344.781 2.79688 347.078 3.86719 348.969 5.28906C350.859 6.71094 352.312 8.48437 353.328 10.6094C354.344 12.7188 354.852 15.1562 354.852 17.9219ZM346.062 17.9219C346.062 16.7188 345.867 15.5234 345.477 14.3359C345.102 13.1328 344.422 12.0547 343.438 11.1016C342.469 10.1484 341.141 9.375 339.453 8.78125C337.766 8.1875 335.617 7.89062 333.008 7.89062C331.258 7.89062 329.719 8.03125 328.391 8.3125C327.062 8.57812 325.914 8.95312 324.945 9.4375C323.977 9.92188 323.164 10.4922 322.508 11.1484C321.852 11.7891 321.328 12.4844 320.938 13.2344C320.547 13.9688 320.266 14.7422 320.094 15.5547C319.938 16.3516 319.859 17.1406 319.859 17.9219C319.859 18.7188 319.938 19.5234 320.094 20.3359C320.266 21.1484 320.547 21.9297 320.938 22.6797C321.328 23.4141 321.852 24.1016 322.508 24.7422C323.164 25.3828 323.977 25.9453 324.945 26.4297C325.914 26.8984 327.062 27.2734 328.391 27.5547C329.719 27.8203 331.258 27.9531 333.008 27.9531C335.617 27.9531 337.766 27.6562 339.453 27.0625C341.141 26.4688 342.469 25.6953 343.438 24.7422C344.422 23.7891 345.102 22.7188 345.477 21.5312C345.867 20.3281 346.062 19.125 346.062 17.9219ZM399.5 25.1172C399.5 26.3672 399.336 27.4531 399.008 28.375C398.68 29.2969 398.219 30.0938 397.625 30.7656C397.047 31.4219 396.344 31.9609 395.516 32.3828C394.703 32.7891 393.797 33.1172 392.797 33.3672C391.812 33.6016 390.758 33.7656 389.633 33.8594C388.508 33.9531 387.344 34 386.141 34H362.773V1.79688H385.719C386.641 1.79688 387.562 1.83594 388.484 1.91406C389.422 1.99219 390.312 2.14063 391.156 2.35938C392 2.5625 392.781 2.85156 393.5 3.22656C394.234 3.60156 394.867 4.09375 395.398 4.70312C395.945 5.3125 396.367 6.04687 396.664 6.90625C396.977 7.76563 397.133 8.78125 397.133 9.95312C397.133 12.0469 396.617 13.7109 395.586 14.9453C394.555 16.1641 392.93 16.9766 390.711 17.3828C392.273 17.4922 393.609 17.7344 394.719 18.1094C395.844 18.4688 396.758 18.9688 397.461 19.6094C398.164 20.2344 398.68 21.0078 399.008 21.9297C399.336 22.8359 399.5 23.8984 399.5 25.1172ZM388.648 11.3359C388.648 10.9297 388.586 10.5469 388.461 10.1875C388.336 9.8125 388.109 9.48438 387.781 9.20312C387.453 8.92188 387.008 8.69531 386.445 8.52344C385.883 8.35156 385.164 8.26562 384.289 8.26562H371.469V14.3125H384.289C385.164 14.3125 385.883 14.2344 386.445 14.0781C387.008 13.9219 387.453 13.7109 387.781 13.4453C388.109 13.1797 388.336 12.8672 388.461 12.5078C388.586 12.1328 388.648 11.7422 388.648 11.3359ZM390.664 24.1094C390.664 23.375 390.539 22.7891 390.289 22.3516C390.039 21.8984 389.648 21.5547 389.117 21.3203C388.586 21.0703 387.898 20.9062 387.055 20.8281C386.211 20.75 385.203 20.7109 384.031 20.7109H371.469V27.5312H384.031C385.203 27.5312 386.211 27.4922 387.055 27.4141C387.898 27.3359 388.586 27.1719 389.117 26.9219C389.648 26.6719 390.039 26.3281 390.289 25.8906C390.539 25.4375 390.664 24.8438 390.664 24.1094ZM437.117 10.8672C436.508 10.5703 435.703 10.2344 434.703 9.85938C433.703 9.48438 432.57 9.13281 431.305 8.80469C430.039 8.46094 428.664 8.17969 427.18 7.96094C425.695 7.72656 424.172 7.60938 422.609 7.60938C421.359 7.60938 420.289 7.64844 419.398 7.72656C418.523 7.80469 417.781 7.90625 417.172 8.03125C416.578 8.15625 416.102 8.30469 415.742 8.47656C415.398 8.63281 415.133 8.79688 414.945 8.96875C414.758 9.14062 414.633 9.3125 414.57 9.48438C414.523 9.65625 414.5 9.8125 414.5 9.95312C414.5 10.4219 414.734 10.8359 415.203 11.1953C415.672 11.5391 416.312 11.8516 417.125 12.1328C417.938 12.3984 418.883 12.6562 419.961 12.9062C421.039 13.1406 422.18 13.3906 423.383 13.6562C424.602 13.9062 425.852 14.1875 427.133 14.5C428.43 14.7969 429.68 15.1484 430.883 15.5547C432.102 15.9609 433.25 16.4375 434.328 16.9844C435.406 17.5156 436.352 18.1406 437.164 18.8594C437.977 19.5781 438.617 20.4062 439.086 21.3438C439.555 22.2812 439.789 23.3516 439.789 24.5547C439.789 26.1016 439.516 27.4297 438.969 28.5391C438.422 29.6484 437.688 30.5859 436.766 31.3516C435.859 32.1172 434.805 32.7344 433.602 33.2031C432.398 33.6562 431.133 34.0078 429.805 34.2578C428.492 34.5078 427.156 34.6719 425.797 34.75C424.453 34.8281 423.172 34.8672 421.953 34.8672C418.766 34.8672 415.812 34.6016 413.094 34.0703C410.391 33.5547 408 32.9062 405.922 32.125V24.4375C408.062 25.625 410.5 26.5547 413.234 27.2266C415.984 27.8984 418.922 28.2344 422.047 28.2344C423.891 28.2344 425.391 28.1406 426.547 27.9531C427.719 27.75 428.633 27.5 429.289 27.2031C429.945 26.8906 430.391 26.5547 430.625 26.1953C430.859 25.8359 430.977 25.4922 430.977 25.1641C430.977 24.6484 430.742 24.2031 430.273 23.8281C429.805 23.4375 429.164 23.1016 428.352 22.8203C427.539 22.5234 426.594 22.2578 425.516 22.0234C424.438 21.7734 423.289 21.5312 422.07 21.2969C420.867 21.0469 419.625 20.7812 418.344 20.5C417.062 20.2188 415.812 19.8906 414.594 19.5156C413.391 19.125 412.25 18.6797 411.172 18.1797C410.094 17.6641 409.148 17.0625 408.336 16.375C407.523 15.6719 406.883 14.8672 406.414 13.9609C405.945 13.0391 405.711 11.9766 405.711 10.7734C405.711 9.35156 405.961 8.125 406.461 7.09375C406.961 6.0625 407.633 5.1875 408.477 4.46875C409.336 3.73438 410.32 3.14062 411.43 2.6875C412.555 2.23438 413.734 1.88281 414.969 1.63281C416.203 1.38281 417.453 1.21094 418.719 1.11719C419.984 1.02344 421.188 0.976562 422.328 0.976562C423.578 0.976562 424.859 1.03906 426.172 1.16406C427.5 1.28906 428.805 1.46875 430.086 1.70312C431.367 1.92187 432.602 2.17969 433.789 2.47656C434.992 2.77344 436.102 3.08594 437.117 3.41406V10.8672Z" fill="#FEFEFE"/>
</g>
<defs>
<filter id="filter0_d" x="0.882812" y="0.976562" width="442.906" height="41.9375" filterUnits="userSpaceOnUse" color-interpolation-filters="sRGB">
<feFlood flood-opacity="0" result="BackgroundImageFix"/>
<feColorMatrix in="SourceAlpha" type="matrix" values="0 0 0 0 0 0 0 0 0 0 0 0 0 0 0 0 0 0 127 0"/>
<feOffset dy="4"/>
<feGaussianBlur stdDeviation="2"/>
<feColorMatrix type="matrix" values="0 0 0 0 0 0 0 0 0 0 0 0 0 0 0 0 0 0 0.25 0"/>
<feBlend mode="normal" in2="BackgroundImageFix" result="effect1_dropShadow"/>
<feBlend mode="normal" in="SourceGraphic" in2="effect1_dropShadow" result="shape"/>
</filter>
</defs>
</svg>
